<svg xmlns="http://www.w3.org/2000/svg" width="256" height="256" viewBox="0 0 256 256">
<!-- Date &amp; Time: a chrome table clock at ten past ten. Original Phoenix art. -->
<defs>
  <linearGradient id="g1" x1="0" y1="0" x2="0" y2="1"><stop offset="0" stop-color="#ffffff"/><stop offset="0.45" stop-color="#cfd3d7"/><stop offset="0.55" stop-color="#9aa0a6"/><stop offset="1" stop-color="#dfe2e5"/></linearGradient>
  <path id="s2" d="M60 100A68 68 0 1 0 196 100A68 68 0 1 0 60 100Z"/>
  <linearGradient id="g3" x1="0" y1="0" x2="0" y2="1"><stop offset="0" stop-color="#ffffff"/><stop offset="1" stop-color="#e4e8ec"/></linearGradient>
</defs>
<path d="M96 160L86 178M160 160L170 178" stroke="#3a3f44" stroke-width="10" stroke-linecap="round"/><path d="M96 160L86 178M160 160L170 178" stroke="#c9ced3" stroke-width="5" stroke-linecap="round"/>
<g>
<use href="#s2" y="-6" fill="#8d949b" stroke="#3a3f44" stroke-width="2.5"/>
<use href="#s2" y="-5" fill="#8d949b" stroke="#3a3f44" stroke-width="2.5"/>
<use href="#s2" y="-4" fill="#8d949b" stroke="#3a3f44" stroke-width="2.5"/>
<use href="#s2" y="-3" fill="#8d949b" stroke="#3a3f44" stroke-width="2.5"/>
<use href="#s2" y="-2" fill="#8d949b" stroke="#3a3f44" stroke-width="2.5"/>
<use href="#s2" y="-1" fill="#8d949b" stroke="#3a3f44" stroke-width="2.5"/>
<use href="#s2" fill="url(#g1)" stroke="#3a3f44" stroke-width="2.5" stroke-linejoin="round"/>
</g>
<circle cx="128" cy="100" r="56" fill="url(#g3)" stroke="#5d636a" stroke-width="2"/>
<g stroke="#3a3f44" stroke-width="4" stroke-linecap="round"><path d="M128 50V58" transform="rotate(0 128 100)"/><path d="M128 50V58" transform="rotate(30 128 100)"/><path d="M128 50V58" transform="rotate(60 128 100)"/><path d="M128 50V58" transform="rotate(90 128 100)"/><path d="M128 50V58" transform="rotate(120 128 100)"/><path d="M128 50V58" transform="rotate(150 128 100)"/><path d="M128 50V58" transform="rotate(180 128 100)"/><path d="M128 50V58" transform="rotate(210 128 100)"/><path d="M128 50V58" transform="rotate(240 128 100)"/><path d="M128 50V58" transform="rotate(270 128 100)"/><path d="M128 50V58" transform="rotate(300 128 100)"/><path d="M128 50V58" transform="rotate(330 128 100)"/></g>
<path d="M128 100L104 86" stroke="#2a2d31" stroke-width="7" stroke-linecap="round"/><path d="M128 100L160 70" stroke="#2a2d31" stroke-width="5" stroke-linecap="round"/><path d="M128 100L128 140" stroke="#d1322a" stroke-width="2.5" stroke-linecap="round"/><circle cx="128" cy="100" r="5" fill="#d1322a"/>
<path d="M84 72A52 52 0 0 1 172 72A60 30 0 0 0 84 72Z" fill="#fff" opacity="0.5"/>
</svg>
